<?xml version="1.0" encoding="UTF-8" standalone="no"?>
<!-- Created with Inkscape (http://www.inkscape.org/) -->

<svg
   xmlns:dc="http://purl.org/dc/elements/1.1/"
   xmlns:cc="http://creativecommons.org/ns#"
   xmlns:rdf="http://www.w3.org/1999/02/22-rdf-syntax-ns#"
   xmlns:svg="http://www.w3.org/2000/svg"
   xmlns="http://www.w3.org/2000/svg"
   xmlns:sodipodi="http://sodipodi.sourceforge.net/DTD/sodipodi-0.dtd"
   xmlns:inkscape="http://www.inkscape.org/namespaces/inkscape"
   width="57.579113mm"
   height="30.429585mm"
   viewBox="0 0 204.02048 107.82137"
   id="svg2"
   version="1.1"
   inkscape:version="0.92.1 r15371"
   sodipodi:docname="logotype.svg"
   inkscape:export-filename="/home/smika/versioned/github/simonmika/simonmika.com/static/img/logotype.png"
   inkscape:export-xdpi="90"
   inkscape:export-ydpi="90">
  <defs
     id="defs4" />
  <sodipodi:namedview
     id="base"
     pagecolor="#ffffff"
     bordercolor="#666666"
     borderopacity="1.0"
     inkscape:pageopacity="0.0"
     inkscape:pageshadow="2"
     inkscape:zoom="8.5836971"
     inkscape:cx="108.81092"
     inkscape:cy="57.504727"
     inkscape:document-units="px"
     inkscape:current-layer="text4150"
     showgrid="false"
     fit-margin-top="0"
     fit-margin-left="0"
     fit-margin-right="0"
     fit-margin-bottom="0"
     inkscape:window-width="2519"
     inkscape:window-height="1416"
     inkscape:window-x="41"
     inkscape:window-y="24"
     inkscape:window-maximized="1"
     inkscape:snap-page="true"
     inkscape:snap-bbox="true"
     inkscape:bbox-nodes="true" />
  <metadata
     id="metadata7">
    <rdf:RDF>
      <cc:Work
         rdf:about="">
        <dc:format>image/svg+xml</dc:format>
        <dc:type
           rdf:resource="http://purl.org/dc/dcmitype/StillImage" />
        <dc:title></dc:title>
      </cc:Work>
    </rdf:RDF>
  </metadata>
  <g
     inkscape:label="Layer 1"
     inkscape:groupmode="layer"
     id="layer1"
     transform="translate(1133.1731,-79.39391)">
    <g
       style="font-style:normal;font-variant:normal;font-weight:300;font-stretch:normal;font-size:83.72344208px;line-height:125%;font-family:Ubuntu;-inkscape-font-specification:'Ubuntu Light';text-align:end;letter-spacing:0px;word-spacing:0px;text-anchor:end;fill:#2e3436;fill-opacity:1;stroke:none;stroke-width:1px;stroke-linecap:butt;stroke-linejoin:miter;stroke-opacity:1"
       id="text4146" />
    <g
       style="font-style:normal;font-variant:normal;font-weight:normal;font-stretch:normal;font-size:36.99356079px;line-height:124.00000095%;font-family:'URW Gothic L';-inkscape-font-specification:'URW Gothic L';text-align:end;letter-spacing:0px;word-spacing:0px;text-anchor:end;fill:#2e3436;fill-opacity:1;stroke:none;stroke-width:1px;stroke-linecap:butt;stroke-linejoin:miter;stroke-opacity:1"
       id="text4150">
      <g
         aria-label="Imint"
         style="font-style:normal;font-variant:normal;font-weight:500;font-stretch:normal;font-size:87.11967468px;line-height:125%;font-family:Ubuntu;-inkscape-font-specification:'Ubuntu, Medium';text-align:center;letter-spacing:0px;word-spacing:0px;writing-mode:lr-tb;text-anchor:middle;fill:#2e3436;fill-opacity:1;stroke:none;stroke-width:0.9375px;stroke-linecap:butt;stroke-linejoin:miter;stroke-opacity:1"
         id="text4487" />
      <g
         aria-label="investors"
         style="font-style:normal;font-variant:normal;font-weight:500;font-stretch:normal;font-size:49.1269455px;line-height:125%;font-family:Ubuntu;-inkscape-font-specification:'Ubuntu, Medium';text-align:center;letter-spacing:0px;word-spacing:0px;writing-mode:lr-tb;text-anchor:middle;fill:#2e3436;fill-opacity:1;stroke:none;stroke-width:0.93750012px;stroke-linecap:butt;stroke-linejoin:miter;stroke-opacity:1"
         id="text4491">
        <path
           id="path4515"
           style="word-spacing:0px;fill:#2e3436;fill-opacity:1;stroke-width:0.93750012px"
           d="m -939.61673,182.25345 q 2.3581,0 3.43889,-0.54039 1.08079,-0.58953 1.08079,-1.96508 0,-1.2773 -1.17904,-2.11246 -1.12992,-0.83516 -3.78278,-1.8177 -1.62119,-0.58952 -2.99674,-1.22817 -1.32643,-0.68778 -2.30897,-1.57206 -0.98254,-0.88429 -1.57206,-2.11246 -0.5404,-1.2773 -0.5404,-3.095 0,-3.53714 2.60373,-5.55134 2.60373,-2.06334 7.07428,-2.06334 2.25984,0 4.32317,0.44215 2.06333,0.39301 3.095,0.78603 l -1.08079,4.81444 q -0.98254,-0.44214 -2.50548,-0.78603 -1.52293,-0.39302 -3.53714,-0.39302 -1.81769,0 -2.94761,0.63865 -1.12992,0.58952 -1.12992,1.86683 0,0.63865 0.1965,1.12992 0.24564,0.49126 0.78604,0.93341 0.54039,0.39301 1.42468,0.83516 0.88428,0.39301 2.16158,0.83515 2.11246,0.78603 3.58627,1.57207 1.47381,0.7369 2.40722,1.71944 0.98254,0.93341 1.42468,2.16158 0.44214,1.22818 0.44214,2.94762 0,3.68452 -2.7511,5.60047 -2.70199,1.86683 -7.76206,1.86683 -3.38976,0 -5.45309,-0.58953 -2.06333,-0.54039 -2.89849,-0.88428 l 1.03166,-4.96182 q 1.32643,0.54039 3.14413,1.03166 1.86682,0.49127 4.22491,0.49127 z m -11.56171,-16.06451 q -0.7369,-0.24563 -2.06333,-0.49127 -1.2773,-0.29476 -2.99675,-0.29476 -0.98253,0 -2.11245,0.19651 -1.0808,0.19651 -1.52294,0.34389 v 20.58419 h -5.94436 v -24.46522 q 1.71944,-0.63865 4.27404,-1.17905 2.60373,-0.58952 5.74786,-0.58952 0.58952,0 1.37555,0.0983 0.78603,0.0491 1.57206,0.19651 0.78603,0.0983 1.52294,0.29476 0.7369,0.14738 1.17905,0.29476 z m -20.76382,7.4673 q 0,3.04587 -0.88429,5.55134 -0.88428,2.50548 -2.50547,4.27405 -1.62119,1.76857 -3.93016,2.7511 -2.25984,0.98254 -5.01095,0.98254 -2.75111,0 -5.01094,-0.98254 -2.25984,-0.98253 -3.88103,-2.7511 -1.62119,-1.76857 -2.5546,-4.27405 -0.88429,-2.50547 -0.88429,-5.55134 0,-3.04587 0.88429,-5.50222 0.93341,-2.50548 2.5546,-4.27405 1.67031,-1.76857 3.93015,-2.70198 2.25984,-0.98254 4.96182,-0.98254 2.70199,0 4.96183,0.98254 2.30896,0.93341 3.93015,2.70198 1.62119,1.76857 2.50548,4.27405 0.93341,2.45635 0.93341,5.50222 z m -6.09174,0 q 0,-3.83191 -1.67032,-6.04262 -1.62119,-2.25984 -4.56881,-2.25984 -2.94761,0 -4.61793,2.25984 -1.62119,2.21071 -1.62119,6.04262 0,3.88103 1.62119,6.14086 1.67032,2.25984 4.61793,2.25984 2.94762,0 4.56881,-2.25984 1.67032,-2.25983 1.67032,-6.14086 z m -37.3979,-19.60165 5.9444,-0.98254 v 7.76205 h 9.1376 v 4.96183 h -9.1376 v 10.46403 q 0,3.095 0.9825,4.42143 0.9826,1.32643 3.3406,1.32643 1.6212,0 2.8494,-0.34389 1.2773,-0.34389 2.0142,-0.63865 l 0.98255,4.71619 q -1.03165,0.44214 -2.70195,0.88428 -1.6703,0.49127 -3.9302,0.49127 -2.7511,0 -4.6179,-0.7369 -1.8177,-0.73691 -2.8985,-2.11246 -1.0808,-1.42468 -1.5229,-3.38976 -0.4422,-2.01421 -0.4422,-4.56881 z m -15.7221,28.19886 q 2.3581,0 3.4388,-0.54039 1.0808,-0.58953 1.0808,-1.96508 0,-1.2773 -1.179,-2.11246 -1.1299,-0.83516 -3.7828,-1.8177 -1.6212,-0.58952 -2.9967,-1.22817 -1.3265,-0.68778 -2.309,-1.57206 -0.9825,-0.88429 -1.5721,-2.11246 -0.5404,-1.2773 -0.5404,-3.095 0,-3.53714 2.6038,-5.55134 2.6037,-2.06334 7.0743,-2.06334 2.2598,0 4.3231,0.44215 2.0634,0.39301 3.095,0.78603 l -1.0808,4.81444 q -0.9825,-0.44214 -2.5054,-0.78603 -1.523,-0.39302 -3.5372,-0.39302 -1.8177,0 -2.9476,0.63865 -1.1299,0.58952 -1.1299,1.86683 0,0.63865 0.1965,1.12992 0.2456,0.49126 0.786,0.93341 0.5404,0.39301 1.4247,0.83516 0.8843,0.39301 2.1616,0.83515 2.1124,0.78603 3.5863,1.57207 1.4738,0.7369 2.4072,1.71944 0.9825,0.93341 1.4247,2.16158 0.4421,1.22818 0.4421,2.94762 0,3.68452 -2.7511,5.60047 -2.702,1.86683 -7.7621,1.86683 -3.3897,0 -5.4531,-0.58953 -2.0633,-0.54039 -2.8984,-0.88428 l 1.0316,-4.96182 q 1.3264,0.54039 3.1441,1.03166 1.8669,0.49127 4.225,0.49127 z m -35.8781,-8.44983 q 0,-3.38976 0.9826,-5.94436 1.0316,-2.5546 2.702,-4.22492 1.6703,-1.71944 3.8319,-2.5546 2.1615,-0.88429 4.4214,-0.88429 5.3057,0 8.2533,3.29151 2.9968,3.2915 2.9968,9.82539 0,0.49127 -0.049,1.12992 0,0.58952 -0.049,1.08079 h -16.9488 q 0.2456,3.095 2.1616,4.81444 1.9651,1.67032 5.6496,1.67032 2.1616,0 3.9301,-0.39302 1.8177,-0.39301 2.8494,-0.83516 l 0.786,4.86357 q -0.4912,0.24564 -1.3755,0.5404 -0.8352,0.24563 -1.9651,0.44214 -1.0808,0.24563 -2.3581,0.39302 -1.2773,0.14738 -2.6037,0.14738 -3.3898,0 -5.8953,-0.98254 -2.5054,-1.03167 -4.1266,-2.80024 -1.6212,-1.8177 -2.4072,-4.22492 -0.7861,-2.45634 -0.7861,-5.35483 z m 17.2436,-2.65286 q 0,-1.22817 -0.3439,-2.30896 -0.3439,-1.12992 -1.0317,-1.91595 -0.6386,-0.83516 -1.6212,-1.27731 -0.9334,-0.49126 -2.2598,-0.49126 -1.3755,0 -2.4072,0.54039 -1.0317,0.49127 -1.7686,1.32643 -0.6878,0.83516 -1.0808,1.91595 -0.393,1.08079 -0.5404,2.21071 z m -34.471,15.37674 q -2.4564,-5.06008 -5.0601,-11.59396 -2.5546,-6.58301 -4.667,-14.09944 h 6.3373 q 0.5404,2.16159 1.2282,4.66706 0.7369,2.45635 1.5229,4.96183 0.8352,2.45634 1.6704,4.81444 0.8842,2.30896 1.6211,4.17579 0.737,-1.86683 1.5721,-4.17579 0.8352,-2.3581 1.6212,-4.81444 0.8352,-2.50548 1.5721,-4.96183 0.7369,-2.50547 1.2773,-4.66706 h 6.1408 q -2.1124,7.51643 -4.7162,14.09944 -2.5546,6.53388 -5.0109,11.59396 z m -34.6967,-24.85824 q 1.7195,-0.49127 4.4706,-0.93341 2.7511,-0.44214 6.0917,-0.44214 3.1441,0 5.2566,0.88428 2.1125,0.83516 3.3406,2.40722 1.2773,1.52294 1.7686,3.73365 0.5404,2.16159 0.5404,4.76531 v 14.44333 h -5.9444 v -13.50991 q 0,-2.06334 -0.2947,-3.48802 -0.2457,-1.47381 -0.8843,-2.35809 -0.5895,-0.93341 -1.6703,-1.32643 -1.0317,-0.44214 -2.5546,-0.44214 -1.1299,0 -2.3581,0.14738 -1.2282,0.14738 -1.8177,0.24564 v 20.73157 h -5.9444 z m -7.5356,24.85824 h -5.9444 v -25.6934 h 5.9444 z m 0.6387,-33.20982 q 0,1.67032 -1.0808,2.65286 -1.0808,0.98254 -2.5546,0.98254 -1.523,0 -2.6038,-0.98254 -1.0808,-0.98254 -1.0808,-2.65286 0,-1.71944 1.0808,-2.70198 1.0808,-0.98254 2.6038,-0.98254 1.4738,0 2.5546,0.98254 1.0808,0.98254 1.0808,2.70198 z m 168.12527,-66.082999 10.54148,-1.742394 v 13.764909 h 16.20426 v 8.799084 h -16.20426 v 18.55649 q 0,5.48854 1.7424,7.84077 1.74239,2.35224 5.92413,2.35224 2.87495,0 5.05295,-0.60984 2.26511,-0.60984 3.5719,-1.13256 l 1.7424,8.36349 q -1.82952,0.78408 -4.79159,1.56815 -2.96207,0.8712 -6.96957,0.8712 -4.8787,0 -8.18925,-1.30679 -3.22343,-1.3068 -5.14006,-3.74615 -1.91663,-2.52647 -2.70071,-6.01126 -0.78408,-3.5719 -0.78408,-8.10213 z m -50.52397,13.503549 q 3.0492,-0.871197 7.9279,-1.655274 4.8787,-0.784077 10.80284,-0.784077 5.57566,0 9.3218,1.568154 3.74615,1.481037 5.92414,4.268867 2.26511,2.70071 3.13631,6.62109 0.95831,3.83327 0.95831,8.45061 v 25.61319 h -10.54148 v -23.95792 q 0,-3.65902 -0.52271,-6.18549 -0.4356,-2.61359 -1.56816,-4.18175 -1.04544,-1.65527 -2.96207,-2.35223 -1.82951,-0.78407 -4.53022,-0.78407 -2.00375,0 -4.18175,0.26135 -2.17799,0.26136 -3.22342,0.4356 v 36.76451 h -10.54149 z m -13.3633,44.08256 h -10.5415 V 99.257196 h 10.5415 z m 1.1325,-58.892905 q 0,2.962069 -1.9166,4.704463 -1.9166,1.742393 -4.5302,1.742393 -2.7007,0 -4.6174,-1.742393 -1.9166,-1.742394 -1.9166,-4.704463 0,-3.049188 1.9166,-4.791582 1.9167,-1.742393 4.6174,-1.742393 2.6136,0 4.5302,1.742393 1.9166,1.742394 1.9166,4.791582 z m -61.1784,34.934985 q 0,-7.14381 -1.8295,-10.28012 -1.7424,-3.22342 -6.6211,-3.22342 -1.7424,0 -3.8333,0.26135 -2.0909,0.26136 -3.1363,0.4356 v 36.76451 h -10.5415 v -44.08256 q 3.0492,-0.871197 7.9279,-1.655274 4.9658,-0.784077 10.4544,-0.784077 4.7044,0 7.6665,1.219676 3.0492,1.219675 5.053,3.223425 0.9583,-0.69695 2.4393,-1.48103 1.481,-0.78408 3.3106,-1.393917 1.8295,-0.696957 3.8332,-1.132555 2.0909,-0.435599 4.1818,-0.435599 5.3143,0 8.7119,1.568154 3.4848,1.481037 5.4014,4.268867 2.0038,2.70071 2.7008,6.62109 0.784,3.83327 0.784,8.45061 v 25.61319 h -10.5414 v -23.95792 q 0,-7.14381 -1.7424,-10.28012 -1.7424,-3.22342 -6.7083,-3.22342 -2.5264,0 -4.7915,0.87119 -2.2651,0.78408 -3.3977,1.56816 0.697,2.17799 0.9583,4.61734 0.2614,2.43935 0.2614,5.22718 v 25.17759 h -10.5415 z m -50.9623,-36.416019 h 10.9771 v 60.373939 h -10.9771 z" />
      </g>
    </g>
  </g>
</svg>
